<?xml version="1.0" standalone="no"?>
<!DOCTYPE svg PUBLIC "-//W3C//DTD SVG 20010904//EN"
 "http://www.w3.org/TR/2001/REC-SVG-20010904/DTD/svg10.dtd">
<svg version="1.0" xmlns="http://www.w3.org/2000/svg"
 width="260.000000pt" height="260.000000pt" viewBox="0 0 260.000000 260.000000"
 preserveAspectRatio="xMidYMid meet">
<metadata>
Created by potrace 1.14, written by Peter Selinger 2001-2017
</metadata>
<g transform="translate(0.000000,260.000000) scale(0.100000,-0.100000)"
fill="#000000" stroke="none">
<path d="M1232 2524 c-106 -22 -194 -92 -250 -198 -23 -44 -26 -63 -27 -146 0
-83 3 -102 27 -152 34 -73 104 -142 176 -176 48 -22 71 -27 147 -27 77 0 98 4
146 26 73 35 143 104 177 176 23 50 27 71 27 148 0 76 -4 99 -26 145 -34 72
-72 116 -134 155 -82 52 -170 68 -263 49z"/>
<path d="M329 1645 c-101 -32 -201 -127 -229 -218 -19 -61 -20 -66 -21 -128
-1 -144 99 -283 236 -329 55 -19 63 -20 119 -21 68 0 102 9 169 44 170 89 234
300 146 477 -27 56 -99 124 -163 155 -71 35 -184 44 -257 20z"/>
<path d="M2073 1646 c-164 -54 -265 -205 -250 -372 12 -127 83 -231 195 -286
61 -30 74 -33 162 -33 79 0 103 4 142 24 188 92 263 312 167 492 -61 115 -163
178 -297 185 -49 2 -92 -1 -119 -10z"/>
<path d="M1207 776 c-193 -56 -305 -272 -237 -459 117 -322 563 -318 673 6 24
73 18 188 -15 259 -33 70 -101 138 -173 172 -68 33 -177 42 -248 22z"/>
</g>
</svg>
